ffmpeg version N-73165-gf1e1730 Copyright (c) 2000-2015 the FFmpeg developers
  built with gcc 4.9.2 (GCC)
  configuration: --enable-gpl --enable-version3 --disable-w32threads --enable-avisynth --enable-bzlib --enable-fontconfig --enable-frei0r --enable-gnutls --enable-iconv --enable-libass --enable-libbluray --enable-libbs2b --enable-libcaca --enable-libdcadec --enable-libfreetype --enable-libgme --enable-libgsm --enable-libilbc --enable-libmodplug --enable-libmp3lame --enable-libopencore-amrnb --enable-libopencore-amrwb --enable-libopenjpeg --enable-libopus --enable-librtmp --enable-libschroedinger --enable-libsoxr --enable-libspeex --enable-libtheora --enable-libtwolame --enable-libvidstab --enable-libvo-aacenc --enable-libvo-amrwbenc --enable-libvorbis --enable-libvpx --enable-libwavpack --enable-libwebp --enable-libx264 --enable-libx265 --enable-libxavs --enable-libxvid --enable-lzma --enable-decklink --enable-zlib
  libavutil      54. 27.100 / 54. 27.100
  libavcodec     56. 45.100 / 56. 45.100
  libavformat    56. 38.102 / 56. 38.102
  libavdevice    56.  4.100 / 56.  4.100
  libavfilter     5. 18.100 /  5. 18.100
  libswscale      3.  1.101 /  3.  1.101
  libswresample   1.  2.100 /  1.  2.100
  libpostproc    53.  3.100 / 53.  3.100
Input #0, rawvideo, from 'pipe:':
  Duration: N/A, start: 0.000000, bitrate: 165888 kb/s
    Stream #0:0: Video: rawvideo (RGB[24] / 0x18424752), rgb24, 640x360, 165888 kb/s, 30 tbr, 30 tbn, 30 tbc
[libx264 @ 00000000003abfe0] using cpu capabilities: MMX2 SSE2Fast SSSE3 SSE4.2 AVX FMA3 AVX2 LZCNT BMI2
[libx264 @ 00000000003abfe0] profile High, level 3.0
[libx264 @ 00000000003abfe0] 264 - core 146 r2538 121396c - H.264/MPEG-4 AVC codec - Copyleft 2003-2015 - http://www.videolan.org/x264.html - options: cabac=1 ref=3 deblock=1:0:0 analyse=0x3:0x113 me=hex subme=7 psy=1 psy_rd=1.00:0.00 mixed_ref=1 me_range=16 chroma_me=1 trellis=1 8x8dct=1 cqm=0 deadzone=21,11 fast_pskip=1 chroma_qp_offset=-2 threads=12 lookahead_threads=2 sliced_threads=0 nr=0 decimate=1 interlaced=0 bluray_compat=0 constrained_intra=0 bframes=3 b_pyramid=2 b_adapt=1 b_bias=0 direct=1 weightb=1 open_gop=0 weightp=2 keyint=250 keyint_min=25 scenecut=40 intra_refresh=0 rc_lookahead=40 rc=crf mbtree=1 crf=15.0 qcomp=0.60 qpmin=0 qpmax=69 qpstep=4 ip_ratio=1.40 aq=1:1.00
Output #0, mp4, to 'C:\Users\Jonghwa\Documents\GitHub\2015RnE\ARDroneForRnE_For_Success\20151027210013.mp4':
  Metadata:
    comment         : Exported using VideoExport for Processing - https://github.com/hamoid/VideoExport-for-Processing
    encoder         : Lavf56.38.102
    Stream #0:0: Video: h264 (libx264) ([33][0][0][0] / 0x0021), yuv420p, 640x360, q=-1--1, 30 fps, 15360 tbn, 30 tbc
    Metadata:
      encoder         : Lavc56.45.100 libx264
Stream mapping:
  Stream #0:0 -> #0:0 (rawvideo (native) -> h264 (libx264))
frame=   19 fps=0.0 q=0.0 size=       0kB time=00:00:00.00 bitrate=N/A    frame=   42 fps= 35 q=0.0 size=       0kB time=00:00:00.00 bitrate=N/A    frame=   53 fps= 30 q=0.0 size=       0kB time=00:00:00.00 bitrate=N/A    frame=   72 fps= 32 q=21.0 size=     138kB time=00:00:00.46 bitrate=2423.4kbits/s    frame=   86 fps= 25 q=21.0 size=     217kB time=00:00:00.93 bitrate=1907.7kbits/s    frame=  108 fps= 27 q=21.0 size=     343kB time=00:00:01.66 bitrate=1687.2kbits/s    frame=  129 fps= 29 q=21.0 size=     476kB time=00:00:02.36 bitrate=1648.4kbits/s    frame=  148 fps= 30 q=21.0 size=     594kB time=00:00:03.00 bitrate=1621.1kbits/s    frame=  171 fps= 31 q=21.0 size=     727kB time=00:00:03.76 bitrate=1581.3kbits/s    frame=  191 fps= 32 q=21.0 size=     851kB time=00:00:04.43 bitrate=1572.7kbits/s    frame=  213 fps= 33 q=21.0 size=     977kB time=00:00:05.16 bitrate=1549.7kbits/s    frame=  235 fps= 34 q=21.0 size=    1124kB time=00:00:05.90 bitrate=1560.6kbits/s    frame=  259 fps= 35 q=21.0 size=    1255kB time=00:00:06.70 bitrate=1534.6kbits/s    frame=  281 fps= 35 q=21.0 size=    1376kB time=00:00:07.43 bitrate=1516.6kbits/s    frame=  304 fps= 36 q=21.0 size=    1534kB time=00:00:08.20 bitrate=1532.5kbits/s    frame=  328 fps= 36 q=21.0 size=    1695kB time=00:00:09.00 bitrate=1543.0kbits/s    frame=  348 fps= 37 q=21.0 size=    1815kB time=00:00:09.66 bitrate=1538.1kbits/s    frame=  370 fps= 37 q=21.0 size=    1950kB time=00:00:10.40 bitrate=1535.7kbits/s    frame=  393 fps= 37 q=21.0 size=    2074kB time=00:00:11.16 bitrate=1521.3kbits/s    frame=  416 fps= 38 q=21.0 size=    2218kB time=00:00:11.93 bitrate=1522.6kbits/s    frame=  440 fps= 38 q=21.0 size=    2351kB time=00:00:12.73 bitrate=1512.5kbits/s    frame=  465 fps= 39 q=21.0 size=    2493kB time=00:00:13.56 bitrate=1505.1kbits/s    frame=  488 fps= 39 q=21.0 size=    2627kB time=00:00:14.33 bitrate=1501.6kbits/s    frame=  509 fps= 39 q=21.0 size=    2756kB time=00:00:15.03 bitrate=1501.8kbits/s    frame=  531 fps= 39 q=21.0 size=    2902kB time=00:00:15.76 bitrate=1508.0kbits/s    frame=  553 fps= 39 q=21.0 size=    3043kB time=00:00:16.50 bitrate=1510.7kbits/s    frame=  576 fps= 39 q=21.0 size=    3201kB time=00:00:17.26 bitrate=1518.8kbits/s    frame=  597 fps= 40 q=21.0 size=    3321kB time=00:00:17.96 bitrate=1514.2kbits/s    frame=  618 fps= 40 q=21.0 size=    3454kB time=00:00:18.66 bitrate=1515.8kbits/s    frame=  638 fps= 40 q=21.0 size=    3575kB time=00:00:19.33 bitrate=1514.9kbits/s    frame=  660 fps= 40 q=21.0 size=    3729kB time=00:00:20.06 bitrate=1522.2kbits/s    frame=  680 fps= 40 q=21.0 size=    3851kB time=00:00:20.73 bitrate=1521.6kbits/s    frame=  703 fps= 40 q=21.0 size=    3995kB time=00:00:21.50 bitrate=1522.1kbits/s    frame=  725 fps= 40 q=21.0 size=    4109kB time=00:00:22.23 bitrate=1513.9kbits/s    frame=  745 fps= 40 q=21.0 size=    4239kB time=00:00:22.90 bitrate=1516.4kbits/s    frame=  766 fps= 40 q=21.0 size=    4357kB time=00:00:23.60 bitrate=1512.3kbits/s    frame=  791 fps= 40 q=21.0 size=    4497kB time=00:00:24.43 bitrate=1507.7kbits/s    frame=  815 fps= 40 q=21.0 size=    4670kB time=00:00:25.23 bitrate=1516.0kbits/s    frame=  840 fps= 41 q=21.0 size=    4803kB time=00:00:26.06 bitrate=1509.4kbits/s    frame=  863 fps= 41 q=21.0 size=    4928kB time=00:00:26.83 bitrate=1504.6kbits/s    frame=  887 fps= 41 q=21.0 size=    5062kB time=00:00:27.63 bitrate=1500.6kbits/s    frame=  912 fps= 41 q=21.0 size=    5201kB time=00:00:28.46 bitrate=1496.6kbits/s    frame=  916 fps=9.0 q=21.0 size=    5236kB time=00:00:28.60 bitrate=1499.9kbits/s    